<?xml version="1.0" standalone="no"?>
<svg viewBox="0 0 200 200" xmlns="http://www.w3.org/2000/svg">
  <mask id="mask0" mask-type="alpha">
    <path fill="#FF0066" d="M68.4,-39.1C81.4,-16.8,79.9,14.2,66.1,34C52.3,53.8,26.1,62.3,-1.2,63.1C-28.6,63.8,-57.2,56.7,-67.5,38.9C-77.8,21.2,-69.7,-7.2,-55.3,-30.2C-41,-53.2,-20.5,-70.9,3.6,-73C27.6,-75,55.3,-61.5,68.4,-39.1Z" transform="translate(100 100)" />
  </mask>
  <g mask="url(#mask0)">
    <path fill="#FF0066" d="M68.4,-39.1C81.4,-16.8,79.9,14.2,66.1,34C52.3,53.8,26.1,62.3,-1.2,63.1C-28.6,63.8,-57.2,56.7,-67.5,38.9C-77.8,21.2,-69.7,-7.2,-55.3,-30.2C-41,-53.2,-20.5,-70.9,3.6,-73C27.6,-75,55.3,-61.5,68.4,-39.1Z" transform="translate(100 100)" />
    <image xlink:href=""/>
  </g>
</svg>

